<svg width="169" height="42" viewBox="0 0 169 42" fill="none" xmlns="http://www.w3.org/2000/svg">
<path d="M156.389 16.6905V18.0655C156.389 18.2833 156.41 18.4238 156.432 18.505C156.433 18.5096 156.435 18.5137 156.436 18.5177C156.446 18.5213 156.458 18.5271 156.474 18.5313C156.544 18.5499 156.654 18.5665 156.817 18.5665H167.214L166.67 19.6524L159.101 34.7764H166.646V39.9805H151.411L151.954 38.8946L159.55 23.7218H155.778C154.813 23.7218 153.999 23.2974 153.366 22.5382C152.699 21.7383 152.429 20.6208 152.429 19.3165V16.6905H156.389Z" fill="white" stroke="black" stroke-width="1.5"/>
<path d="M139.518 18.5665V32.4307C139.562 33.4313 139.762 34.1739 140.068 34.7051C140.334 35.1318 140.73 35.3727 141.376 35.4004C141.954 35.398 142.478 35.178 142.974 34.67C143.528 34.0923 144 33.2957 144.366 32.2481C144.727 31.1858 144.913 29.9724 144.913 28.5997V18.5665H149.636V39.9805H145.231L145.191 39.2725L145.129 38.1709C144.517 38.9452 143.787 39.5686 142.939 40.0323C142.063 40.5118 141.106 40.75 140.084 40.75C138.542 40.75 137.257 40.0839 136.271 38.8272L136.266 38.8194L136.259 38.8106C135.314 37.5354 134.844 35.9316 134.795 34.0547V18.5665H139.518Z" fill="white" stroke="black" stroke-width="1.5"/>
<path d="M120.154 3.70317C121.512 3.7032 122.777 3.95981 123.939 4.48149C123.942 4.48298 123.947 4.48487 123.951 4.48637C123.954 4.48811 123.958 4.48951 123.962 4.49125H123.961C125.153 4.98784 126.178 5.74701 127.033 6.75883H127.032C127.91 7.74012 128.575 8.94705 129.038 10.3614C129.535 11.774 129.774 13.4008 129.774 15.2276C129.774 16.6568 129.618 18.0553 129.307 19.4219L129.308 19.4229C129.014 20.8175 128.51 22.1015 127.792 23.2686L127.787 23.2774C127.254 24.1183 126.599 24.8459 125.829 25.4629L131.857 38.9239L132.33 39.9805H126.811L126.61 39.544L120.928 27.1788C120.81 27.1823 120.69 27.1856 120.57 27.1856H117.612V39.9805H112.75V3.70317H120.154ZM117.612 21.212H120.5C121.391 21.2119 122.059 21.0251 122.554 20.7061L122.564 20.7002C123.134 20.3457 123.561 19.9053 123.865 19.3809C124.196 18.7758 124.436 18.1271 124.582 17.4307C124.735 16.7036 124.809 16.0338 124.809 15.42C124.809 14.7806 124.725 14.12 124.554 13.4375L124.548 13.4102C124.403 12.7208 124.157 12.0961 123.811 11.5313L123.805 11.5225L123.8 11.5137C123.489 10.9737 123.073 10.5295 122.543 10.1758L122.533 10.168C122.081 9.85457 121.499 9.67681 120.743 9.6768H117.612V21.212Z" fill="white" stroke="black" stroke-width="1.5"/>
<path d="M89.5453 17.7487C91.2762 17.7488 92.8163 18.2659 94.1332 19.3054C95.4282 20.3277 96.4128 21.7073 97.1009 23.4128C97.7887 25.1176 98.1263 27.0108 98.1263 29.0808C98.1263 31.1511 97.7887 33.0587 97.1029 34.7927L97.1019 34.7966H97.1009C96.4114 36.5059 95.4133 37.8878 94.0931 38.9099L94.0922 38.9089C92.7764 39.9454 91.2387 40.4616 89.5101 40.4616C87.8331 40.4616 86.3157 39.9819 84.9828 39.0212L84.9672 39.0095C83.6732 38.0233 82.664 36.6801 81.9281 35.0114L81.9222 34.9978C81.2062 33.284 80.8597 31.3057 80.8597 29.0808C80.8598 27.0078 81.2091 25.112 81.9222 23.405L81.9261 23.3962L82.0677 23.0808C82.7907 21.5237 83.7633 20.2552 84.9965 19.3005C86.3296 18.2684 87.8551 17.7487 89.5453 17.7487ZM89.4759 22.9528C88.801 22.9528 88.178 23.1926 87.5853 23.7233C86.9943 24.2731 86.5004 25.0186 86.1195 25.988C85.7652 26.9161 85.5824 27.9606 85.5824 29.1296C85.5824 30.3271 85.7753 31.4007 86.1507 32.3591L86.2992 32.7009C86.6564 33.4732 87.0983 34.0756 87.6136 34.529C88.2062 35.0305 88.8205 35.2575 89.4759 35.2575C90.1897 35.2574 90.8118 35.022 91.3715 34.53L91.3802 34.5222C91.984 34.0085 92.4714 33.3047 92.8265 32.3796C93.1843 31.4156 93.3685 30.335 93.3685 29.1296C93.3685 27.9236 93.1843 26.8617 92.8295 25.9343L92.8265 25.9265C92.4695 24.9646 91.9807 24.2469 91.3802 23.736L91.3568 23.7146C90.7953 23.195 90.1779 22.9529 89.4759 22.9528Z" fill="white" stroke="black" stroke-width="1.5"/>
<path d="M78.0316 1.25V39.9805H73.309V1.25H78.0316Z" fill="white" stroke="black" stroke-width="1.5"/>
<path d="M69.233 18.5668V39.9809H64.5104V18.5668H69.233ZM66.9586 8.85C67.7268 8.85 68.3502 9.24259 68.8209 9.84707C68.8237 9.8505 68.8269 9.85438 68.8297 9.85781C68.8315 9.86014 68.8338 9.86231 68.8356 9.86465H68.8346C69.3419 10.4943 69.5797 11.2552 69.5797 12.101C69.5797 12.9775 69.3436 13.7647 68.8219 14.4037L68.82 14.4057C68.3392 14.9896 67.7129 15.3529 66.9586 15.3529C66.1927 15.3529 65.5508 14.9628 65.0397 14.3715L65.0328 14.3637L65.026 14.3549C64.5094 13.722 64.2682 12.9543 64.2682 12.101C64.2682 11.2476 64.5093 10.48 65.026 9.84707L65.0397 9.83144C65.5508 9.24013 66.1927 8.85001 66.9586 8.85Z" fill="white" stroke="black" stroke-width="1.5"/>
<path d="M61.883 17.7968L61.8528 18.5761L61.6799 23.0019L61.6487 23.789L60.8635 23.7197C59.9703 23.6406 59.2072 23.8709 58.5315 24.416C57.828 25.0026 57.2475 25.7984 56.802 26.8291C56.3826 27.8524 56.1701 28.9538 56.1701 30.1396V39.9804H51.4826V18.5664H55.8195L55.8576 19.2763L55.9582 21.1543C56.0567 21.0195 56.1591 20.888 56.2649 20.7607C57.0217 19.846 57.8241 19.125 58.6779 18.622C59.5139 18.1117 60.332 17.7968 61.1037 17.7968H61.883Z" fill="white" stroke="black" stroke-width="1.5"/>
<path d="M37.2891 18.5665V32.4307C37.3331 33.4313 37.5332 34.1739 37.8399 34.7051C38.1057 35.1318 38.5011 35.3727 39.1475 35.4004C39.7259 35.398 40.2498 35.178 40.7452 34.67C41.3 34.0923 41.7712 33.2957 42.1378 32.2481C42.4982 31.1858 42.6846 29.9724 42.6846 28.5997V18.5665H47.4073V39.9805H43.003L42.963 39.2725L42.9005 38.1709C42.2884 38.9453 41.5587 39.5686 40.711 40.0323C39.8342 40.5118 38.8774 40.75 37.8555 40.75C36.3134 40.75 35.0283 40.0839 34.043 38.8272L34.0372 38.8194L34.0303 38.8106C33.0856 37.5354 32.6156 35.9316 32.5665 34.0547V18.5665H37.2891Z" fill="white" stroke="black" stroke-width="1.5"/>
<path d="M2.49512 2.59684L2.70312 3.00699L14.3672 25.9914L26.1777 3.00406L26.3867 2.59684H27.6641V39.9806H22.8379V19.8166L15.0039 35.1935L14.7959 35.6027H13.8096L13.6006 35.1974L6.00684 20.508V39.9806H1.25V2.59684H2.49512Z" fill="white" stroke="black" stroke-width="1.5"/>
</svg>
